<svg width="56" height="53" viewBox="0 0 56 53" fill="none" xmlns="http://www.w3.org/2000/svg">
<g filter="url(#filter0_d_1325_3361)">
<path d="M47.6453 21.3685C47.6381 21.4261 47.2726 21.3304 47.2674 21.388C47.0573 23.5818 46.8277 25.3916 46.5404 27.0265C46.3458 28.1376 46.1244 29.1675 45.8638 30.1828C45.8 30.4369 45.7331 30.69 45.663 30.9431C45.4231 31.8089 45.1543 32.6757 44.8464 33.5855C44.4808 34.6692 44.0607 35.8135 43.5746 37.0887C43.5746 37.7864 40.1733 38.3513 35.978 38.3513C31.7827 38.3513 28.3814 37.7864 28.3814 37.0887C27.5349 34.8861 26.8872 33.048 26.3784 31.2949C25.4517 28.1053 24.9872 25.1952 24.6309 20.874H47.3251C47.3117 20.9884 47.6577 21.2551 47.6453 21.3685Z" fill="#A4A4F7"/>
<path d="M29.9765 20.874C28.022 24.6411 26.8377 29.2662 26.3784 31.2949C25.4517 28.1053 24.9872 25.1952 24.6309 20.874H29.9765Z" fill="#7373EF"/>
<path d="M48.1848 20.0605C47.9583 20.3996 48.3063 21.0309 48.0777 21.1921C48.0304 21.2253 47.3672 20.8442 47.325 20.8736C43.7753 21.8126 36.1334 22.27 29.5964 21.6387C27.8252 21.4677 26.1363 21.2166 24.6308 20.8736C23.9512 20.4182 22.9626 19.699 23.3745 17.1045H48.5803C48.8192 18.6055 48.5607 19.4977 48.1848 20.0605Z" fill="#C5C5FF"/>
<path d="M32.5765 17.1045C31.4232 18.2762 30.4305 19.8934 29.5964 21.6387C27.8252 21.4677 26.1363 21.2166 24.6308 20.8736C23.9512 20.4182 22.9626 19.699 23.3745 17.1045H32.5765Z" fill="#A4A4F7"/>
<path d="M35.9775 19.4142C42.938 19.4142 48.5807 18.3797 48.5807 17.1036C48.5807 15.8275 42.938 14.793 35.9775 14.793C29.0169 14.793 23.3743 15.8275 23.3743 17.1036C23.3743 18.3797 29.0169 19.4142 35.9775 19.4142Z" fill="#7373EF"/>
<path d="M45.8636 30.1824C45.7998 30.4365 45.7329 30.6896 45.6628 30.9426C45.4229 31.8084 45.1541 32.6752 44.8462 33.585C40.6993 32.8042 34.8008 29.3254 31.6425 23.3469L32.7917 23.0654C33.0285 23.2257 40.0444 29.5433 45.8636 30.1824Z" fill="#7373EF"/>
<path d="M45.6096 32.1376C40.0139 31.0738 32.1129 25.8811 30.5638 21.7229C30.5398 21.6587 30.5169 21.5945 30.4962 21.5313C30.415 21.2841 30.4299 21.061 30.5099 20.8737C30.8142 20.1508 32.0739 19.952 32.448 20.8737C32.456 20.8895 32.4617 20.9052 32.4674 20.9211C32.5796 21.2314 32.7317 21.5481 32.9183 21.8659C35.0886 25.557 41.9806 29.6017 46.0637 29.7112C49.1436 29.7922 50.6241 27.6331 47.2662 21.3883C47.2868 21.2168 47.3051 21.0453 47.3246 20.8738C47.5751 20.7054 47.9103 20.4708 48.185 20.0615C54.0655 30.5161 50.846 33.133 45.6096 32.1376Z" fill="#F0E3E7"/>
<path d="M24.7503 44.8246C24.7503 44.8246 24.3312 44.508 23.3086 44.6956C22.4292 44.8569 18.3513 43.7351 17.7643 43.4839C17.754 43.479 17.7458 43.4751 17.7376 43.4712C17.7376 43.4712 17.5646 43.1272 16.7922 43.0901C16.7335 43.0872 16.6707 43.0862 16.6048 43.0872C15.6718 43.1028 11.1038 41.4181 11.1161 40.5494C11.1161 40.5494 11.1099 40.5445 11.0966 40.5357C10.9987 40.4663 10.5312 40.1477 9.87009 39.9249C9.7805 39.8947 9.68679 39.8663 9.58999 39.8399C8.69306 39.5976 5.16506 36.7354 5.11357 35.8999C5.11357 35.8999 5.11254 35.8999 5.11254 35.8989C4.77477 35.7044 4.48231 35.3575 4.28254 35.0438C4.08173 34.7282 3.97361 34.4458 4.00553 34.3823C4.11366 34.1624 5.82411 34.867 7.33994 32.2354L25.9037 38.0399C25.9037 38.0399 26.9602 42.3777 24.7503 44.8246Z" fill="white"/>
<path d="M19.3284 40.5908C19.3129 40.6504 18.7929 42.5042 17.7642 43.4843C17.7539 43.4794 17.7456 43.4755 17.7374 43.4716C17.7374 43.4716 17.5644 43.1276 16.7921 43.0905C17.7353 42.3547 19.279 40.6446 19.3284 40.5908Z" fill="#F0E3E7"/>
<path d="M12.3899 39.2598C11.6927 40.1363 11.1634 40.493 11.0965 40.536C10.9986 40.4666 10.5311 40.148 9.87 39.9252C11.1181 39.8158 12.3487 39.2774 12.3899 39.2598Z" fill="#F0E3E7"/>
<path d="M6.54282 35.5834C6.24316 35.7133 5.6253 35.8834 5.11247 35.899C4.7747 35.7045 4.48225 35.3576 4.28247 35.0439C4.97242 35.3009 6.54282 35.5834 6.54282 35.5834Z" fill="#F0E3E7"/>
<path d="M12.7745 31.2267C14.4526 31.7674 22.2229 34.7689 24.855 36.7332C27.4706 38.6851 24.8423 40.3952 22.8427 40.1299C18.205 39.5146 8.21021 34.2692 7.53735 33.6216C6.04953 32.1897 9.15719 30.061 12.7745 31.2267Z" fill="#FF8293"/>
<path d="M14.9725 33.3959C15.5324 33.5843 18.1322 34.6677 19.0269 35.4363C19.916 36.2 19.0768 36.9886 18.4152 36.9247C16.8808 36.7766 13.5163 34.7962 13.2854 34.5381C12.7749 33.9673 13.7656 32.9897 14.9725 33.3959Z" fill="#F6C719"/>
<path d="M36.3208 2.34411C27.7572 13.3161 18.5438 32.0637 17.6263 35.1585C17.3415 35.696 14.8791 35.2904 15.0899 34.2067C16.3164 27.9067 26.3701 10.1392 34.3518 0.675053C34.5037 0.493879 34.7273 0.374954 34.9625 0.313488C36.1643 -0.00507939 37.0808 1.36887 36.3208 2.34411Z" fill="#F6D14F"/>
<path d="M36.3208 2.34411C27.7572 13.3161 18.5438 32.0637 17.6263 35.1585C17.5346 35.3315 17.2185 35.4067 16.8385 35.393C17.4419 33.6976 23.8574 15.9438 30.4418 8.22002C34.6484 3.28613 35.0058 1.26724 34.6402 0.441501C34.7411 0.384824 34.8503 0.342804 34.9625 0.313488C36.1643 -0.00507939 37.0808 1.36887 36.3208 2.34411Z" fill="#F6C719"/>
</g>
<defs>
<filter id="filter0_d_1325_3361" x="0" y="0.266602" width="55.3353" height="52.5576" filterUnits="userSpaceOnUse" color-interpolation-filters="sRGB">
<feFlood flood-opacity="0" result="BackgroundImageFix"/>
<feColorMatrix in="SourceAlpha" type="matrix" values="0 0 0 0 0 0 0 0 0 0 0 0 0 0 0 0 0 0 127 0" result="hardAlpha"/>
<feOffset dy="4"/>
<feGaussianBlur stdDeviation="2"/>
<feComposite in2="hardAlpha" operator="out"/>
<feColorMatrix type="matrix" values="0 0 0 0 0 0 0 0 0 0 0 0 0 0 0 0 0 0 0.25 0"/>
<feBlend mode="normal" in2="BackgroundImageFix" result="effect1_dropShadow_1325_3361"/>
<feBlend mode="normal" in="SourceGraphic" in2="effect1_dropShadow_1325_3361" result="shape"/>
</filter>
</defs>
</svg>
